HIERARCHY
ROOT mixamorig:Hips
{
  OFFSET 0.000000 0.000000 0.000000
  CHANNELS 6 Xposition Yposition Zposition Xrotation Yrotation Zrotation
  JOINT mixamorig:Spine
  {
    OFFSET 0.881470 21.810334 -9.076147
    CHANNELS 3 Xrotation Yrotation Zrotation
    JOINT mixamorig:Spine2
    {
      OFFSET 0.881470 21.810334 -9.076147
      CHANNELS 3 Xrotation Yrotation Zrotation
      JOINT mixamorig:Neck
      {
        OFFSET 0.000000 4.674388 0.000000
        CHANNELS 3 Xrotation Yrotation Zrotation
        JOINT mixamorig:Head
        {
          OFFSET 0.000000 4.678088 0.000000
          CHANNELS 3 Xrotation Yrotation Zrotation
          End Site
          {
            OFFSET 0.000000 1.403426 0.000000
          }
        }
      }
      JOINT mixamorig:LeftShoulder
      {
        OFFSET 15.792676 2.209392 -1.224738
        CHANNELS 3 Xrotation Yrotation Zrotation
        JOINT mixamorig:LeftArm
        {
          OFFSET 3.082085 -20.340128 -8.765461
          CHANNELS 3 Xrotation Yrotation Zrotation
          JOINT mixamorig:LeftForeArm
          {
            OFFSET -6.633304 3.932203 -15.582597
            CHANNELS 3 Xrotation Yrotation Zrotation
            JOINT mixamorig:LeftHand
            {
              OFFSET -2.474855 3.119097 -1.955211
              CHANNELS 3 Xrotation Yrotation Zrotation
              End Site
              {
                OFFSET -0.742457 0.935729 -0.586563
              }
            }
          }
        }
      }
      JOINT mixamorig:RightShoulder
      {
        OFFSET -15.792676 2.209392 1.224738
        CHANNELS 3 Xrotation Yrotation Zrotation
        JOINT mixamorig:RightArm
        {
          OFFSET -2.495612 -27.698627 -14.139695
          CHANNELS 3 Xrotation Yrotation Zrotation
          JOINT mixamorig:RightForeArm
          {
            OFFSET 9.302673 7.642058 -20.278665
            CHANNELS 3 Xrotation Yrotation Zrotation
            JOINT mixamorig:RightHand
            {
              OFFSET 4.807220 4.843324 -4.521461
              CHANNELS 3 Xrotation Yrotation Zrotation
              End Site
              {
                OFFSET 1.442166 1.452997 -1.356438
              }
            }
          }
        }
      }
    }
  }
  JOINT mixamorig:LeftUpLeg
  {
    OFFSET 10.328032 0.296165 2.790499
    CHANNELS 3 Xrotation Yrotation Zrotation
    JOINT mixamorig:LeftLeg
    {
      OFFSET 12.238276 -41.735834 -6.323935
      CHANNELS 3 Xrotation Yrotation Zrotation
      JOINT mixamorig:LeftFoot
      {
        OFFSET 10.293044 -35.926831 16.299592
        CHANNELS 3 Xrotation Yrotation Zrotation
        JOINT mixamorig:LeftToeBase
        {
          OFFSET 1.935367 -5.189186 -6.192034
          CHANNELS 3 Xrotation Yrotation Zrotation
          End Site
          {
            OFFSET 0.580610 -1.556756 -1.857610
          }
        }
      }
    }
  }
  JOINT mixamorig:RightUpLeg
  {
    OFFSET -10.328032 -0.296165 -2.790499
    CHANNELS 3 Xrotation Yrotation Zrotation
    JOINT mixamorig:RightLeg
    {
      OFFSET -6.716455 -33.878452 3.035436
      CHANNELS 3 Xrotation Yrotation Zrotation
      JOINT mixamorig:RightFoot
      {
        OFFSET -12.031321 -38.248560 17.087646
        CHANNELS 3 Xrotation Yrotation Zrotation
        JOINT mixamorig:RightToeBase
        {
          OFFSET -4.660299 -1.482713 -10.654258
          CHANNELS 3 Xrotation Yrotation Zrotation
          End Site
          {
            OFFSET -1.398090 -0.444814 -3.196277
          }
        }
      }
    }
  }
}
MOTION
Frames: 19
Frame Time: 0.083333
0.071091 0.194967 0.137445 0.038606 -0.009514 -0.019150 0.000000 0.000000 0.000000 -22.442035 4.069595 1.696439 11.165077 2.245707 -9.493336 10.747346 3.526011 -9.769970 22.488828 -4.455915 0.193587 1.104642 0.429804 -0.615231 -0.072287 -0.062614 -0.583014 0.000000 0.000000 0.000000 22.537006 -4.431999 0.045114 0.340493 0.333987 0.331062 -0.325476 -0.166530 -0.000113 0.000000 0.000000 0.000000 -0.082978 -0.005532 0.032315 0.817683 0.366103 0.287812 1.761556 0.797791 -0.410116 0.000000 0.000000 0.000000 -0.261255 0.046974 -0.050329 0.457167 -0.184632 -0.099005 -0.083248 -1.237969 0.295035 0.000000 0.000000 0.000000
0.070501 0.196794 0.132334 0.037925 -0.011474 -0.023953 0.000000 0.000000 0.000000 -22.442458 4.058528 1.697198 7.854168 2.268703 -9.721322 7.463809 3.041555 -10.020955 22.503580 -4.440235 0.189988 1.144593 0.399086 -0.639848 -0.162009 -0.038653 -0.511349 0.000000 0.000000 0.000000 22.564423 -4.426433 0.054263 0.506345 0.319715 0.407470 -0.409730 -0.146441 0.025960 0.000000 0.000000 0.000000 -0.051070 0.003839 0.048645 0.794235 0.357647 0.275361 1.476427 0.675116 -0.395960 0.000000 0.000000 0.000000 -0.212813 0.039364 -0.046746 0.381574 -0.150972 -0.063051 -0.080526 -1.129415 0.252473 0.000000 0.000000 0.000000
0.069763 0.201392 0.122975 0.136587 -0.045619 -0.096955 0.000000 0.000000 0.000000 -22.448842 3.891059 1.700410 33.449875 2.650637 -7.717895 32.753111 7.301628 -7.478731 22.851586 -4.336164 0.561282 3.336776 0.947130 -1.977220 -0.801779 0.014751 -1.231053 0.000000 0.000000 0.000000 23.043105 -4.404098 0.307337 2.085169 1.087007 1.437723 -1.598240 -0.482167 0.029452 0.000000 0.000000 0.000000 -0.066844 0.047346 0.218901 2.235692 1.012321 0.746745 3.227681 1.456934 -1.067596 0.000000 0.000000 0.000000 -0.466555 0.090594 -0.117432 0.810233 -0.312110 -0.053630 -0.167004 -2.911048 0.569802 0.000000 0.000000 0.000000
0.069741 0.206685 0.115927 0.337700 -0.109089 -0.231994 0.000000 0.000000 0.000000 -22.465867 3.445858 1.652784 33.362628 3.131010 -7.250314 32.614342 7.588483 -6.661996 23.517225 -3.857206 0.917214 4.914057 0.697042 -3.404153 -2.094230 0.390186 -1.338915 0.000000 0.000000 0.000000 23.841495 -4.477138 1.234347 4.819271 2.677365 2.731720 -3.745576 -1.187073 -0.380192 0.000000 0.000000 0.000000 0.039001 0.167598 0.567563 3.329920 1.504385 0.984262 2.127317 0.770543 -1.322728 0.000000 0.000000 0.000000 -0.395673 0.087008 -0.123331 0.496117 -0.166705 0.237324 -0.038736 -3.514133 0.446534 0.000000 0.000000 0.000000
0.070030 0.210804 0.111649 0.690755 -0.180227 -0.372658 0.000000 0.000000 0.000000 -22.493244 2.728147 1.495010 33.231727 3.592996 -6.423947 32.475602 7.655559 -5.444808 24.449190 -2.995504 1.218042 5.173251 -0.387516 -4.623829 -3.303223 0.823460 -1.589794 0.000000 0.000000 0.000000 24.924020 -4.948927 3.320264 7.160107 5.939571 3.242177 -6.273174 -2.644960 -1.692493 0.000000 0.000000 0.000000 -0.039678 0.278410 0.962797 4.305997 1.863069 0.978737 -0.061434 -0.886105 -0.938874 0.000000 0.000000 0.000000 -0.471215 0.094223 -0.074162 0.151667 -0.018282 0.480819 0.201591 -3.385110 0.180473 0.000000 0.000000 0.000000
0.070463 0.213480 0.109347 0.960635 -0.202476 -0.403181 0.000000 0.000000 0.000000 -22.513094 2.201244 1.306479 33.126837 4.165234 -5.697247 32.328117 7.907853 -4.282627 25.139405 -2.289566 1.251952 5.772716 -1.280140 -5.569858 -4.381727 0.801492 -2.376006 0.000000 0.000000 0.000000 26.150708 -5.796919 5.560518 8.421508 9.123953 2.910888 -8.039685 -3.569382 -2.577419 0.000000 0.000000 0.000000 -0.091197 0.326270 1.226151 5.550740 2.230605 0.898907 -2.137768 -2.797714 -0.148281 0.000000 0.000000 0.000000 -0.759928 0.118300 -0.037111 0.447664 -0.076758 0.543925 -0.023798 -2.686101 0.002675 0.000000 0.000000 0.000000
0.070643 0.215301 0.107834 1.162085 -0.211874 -0.408444 0.000000 0.000000 0.000000 -22.523917 1.912119 1.190497 33.052987 4.208557 -5.053434 32.315452 7.603582 -3.519110 25.827716 -1.791438 1.162225 6.784475 -2.097764 -6.526391 -5.621182 0.838284 -2.909550 0.000000 0.000000 0.000000 27.118478 -6.361584 6.802013 8.548521 10.744134 2.435858 -8.772389 -3.501546 -2.639817 0.000000 0.000000 0.000000 -0.114934 0.345218 1.487056 6.775026 2.615286 0.887171 -3.523184 -4.480400 0.571732 0.000000 0.000000 0.000000 -1.181065 0.168712 -0.013660 0.917020 -0.177602 0.568904 -0.023688 -2.016738 -0.231770 0.000000 0.000000 0.000000
0.070360 0.216296 0.106548 1.101027 -0.205752 -0.398791 0.000000 0.000000 0.000000 -22.523203 1.929892 1.189686 33.094282 3.738811 -4.362803 32.521941 6.697329 -2.990747 26.801697 -1.561912 0.963246 7.602088 -2.915830 -7.270118 -6.576539 1.196425 -3.166308 0.000000 0.000000 0.000000 27.804707 -7.051996 7.782561 8.337077 11.442900 1.518855 -8.575814 -2.895040 -1.743997 0.000000 0.000000 0.000000 0.150908 0.362127 1.704182 7.255654 2.791552 0.847807 -4.297094 -5.273474 0.793485 0.000000 0.000000 0.000000 -1.416020 0.216534 -0.044398 1.601075 -0.300820 0.701876 -0.192513 -1.263200 -0.528033 0.000000 0.000000 0.000000
0.069686 0.216701 0.105252 0.596869 -0.185457 -0.393791 0.000000 0.000000 0.000000 -22.517676 2.077658 1.263377 33.351499 3.030125 -3.938582 32.944304 5.676113 -2.899041 28.444971 -1.455231 0.800159 7.824849 -3.419115 -7.743702 -6.871318 1.823600 -3.391595 0.000000 0.000000 0.000000 28.625539 -7.752309 8.587375 7.913188 11.788937 0.464875 -7.875084 -2.431259 -0.603163 0.000000 0.000000 0.000000 0.997599 0.416867 1.857533 7.151107 2.777711 0.733699 -4.558742 -5.779694 1.086705 0.000000 0.000000 0.000000 -1.236145 0.251782 -0.143037 2.303848 -0.426252 0.884559 -0.334524 -0.829808 -0.765255 0.000000 0.000000 0.000000
0.068929 0.216800 0.104345 -0.124272 -0.147816 -0.366557 0.000000 0.000000 -0.000000 -22.506015 2.387089 1.392925 33.704390 2.458305 -3.895947 33.384578 5.020468 -3.170117 30.044225 -1.507949 0.538567 8.048550 -3.775118 -7.918459 -7.104228 2.100112 -3.831745 0.000000 0.000000 0.000000 29.484644 -8.323346 8.926213 7.510176 12.119667 0.018630 -7.232955 -2.614973 0.009907 0.000000 0.000000 0.000000 2.803874 0.652723 2.053498 6.081612 2.448972 0.307152 -4.792946 -5.800098 1.298791 0.000000 0.000000 0.000000 -0.451248 0.187048 -0.387981 2.584654 -0.456323 1.172451 -0.388240 -0.557075 -0.991574 0.000000 0.000000 0.000000
0.068116 0.216603 0.103998 -0.466573 -0.074587 -0.223050 0.000000 0.000000 -0.000000 -22.481848 3.027944 1.524880 33.849338 1.921499 -3.827190 33.607781 4.370472 -3.394602 30.627260 -2.024112 0.353985 8.504526 -3.241503 -7.681708 -7.214255 1.477097 -4.507102 0.000000 0.000000 0.000000 29.586519 -9.012483 9.035933 7.292831 12.084135 -0.257254 -6.628467 -2.691666 0.547956 0.000000 0.000000 0.000000 5.457259 1.170229 2.189764 3.417506 1.695452 -0.350121 -4.670023 -5.949548 1.913096 0.000000 0.000000 0.000000 0.484714 -0.030232 -0.927633 2.486219 -0.458657 1.587306 -0.258411 -0.398289 -1.284860 0.000000 0.000000 0.000000
0.067320 0.216976 0.103603 -0.721457 0.105398 0.181015 0.000000 0.000000 -0.000000 -22.460775 3.612909 1.350560 33.959158 1.626348 -3.966111 33.744374 4.112074 -3.724144 31.988308 -3.309536 1.947666 6.636993 -0.110697 -7.786894 -5.989432 0.742639 -3.285190 0.000000 0.000000 0.000000 29.801325 -9.481469 8.820718 6.786315 11.815462 -0.234769 -6.143312 -2.870043 0.743694 0.000000 0.000000 0.000000 7.997999 1.535073 2.019192 0.316749 0.798627 -1.169536 -3.864908 -6.656963 3.375498 0.000000 0.000000 0.000000 2.959853 -0.693125 -2.129334 0.729933 -0.175028 2.473664 0.056106 -0.290489 -1.693993 0.000000 0.000000 0.000000
0.065913 0.218747 0.103563 -0.401616 0.382506 0.876625 0.000000 0.000000 -0.000000 -22.453671 3.950306 0.710725 33.851143 0.986794 -4.270665 33.666137 3.528151 -4.432577 36.180451 -6.615463 8.308353 0.920481 9.609824 -10.090823 -2.456746 -0.439157 2.772946 0.000000 0.000000 0.000000 29.738308 -9.154203 7.712982 5.958488 10.935953 0.731684 -6.128764 -3.574344 -0.212990 0.000000 0.000000 0.000000 8.905951 1.504880 1.377894 -1.247901 0.291622 -1.621783 -3.356392 -6.885959 4.190690 0.000000 0.000000 0.000000 5.887976 -1.675956 -3.898065 -2.789540 0.495787 3.830347 1.031752 0.569334 -2.367647 0.000000 0.000000 0.000000
0.064829 0.220570 0.114812 1.026633 0.638883 1.720703 0.000000 0.000000 -0.000000 -22.426917 5.067748 0.089864 33.291786 -1.210586 -4.743210 33.216180 1.203204 -6.158790 44.673010 -13.583861 19.912401 -8.770890 28.963273 -12.869436 2.457979 -3.623095 13.127415 0.000000 0.000000 0.000000 29.384172 -8.781925 5.333333 3.585243 8.757862 2.810877 -6.151304 -3.699036 -1.301286 0.000000 0.000000 0.000000 6.248745 0.984511 0.150454 0.978968 0.820087 -0.939556 -3.212460 -4.940189 2.390303 0.000000 0.000000 0.000000 4.924624 -2.086480 -5.729293 -3.249840 0.571385 5.067834 1.218495 3.099882 -2.990060 0.000000 0.000000 0.000000
0.064803 0.220752 0.141916 5.374947 0.845156 3.033368 0.000000 0.000000 -0.000000 -22.371499 7.260084 -1.051432 31.389621 -4.106097 -4.938868 31.393558 -2.121145 -7.777013 54.225971 -19.324758 27.868845 -27.314791 40.173921 -7.974787 1.831849 -5.302114 19.560514 0.000000 0.000000 0.000000 26.622400 -9.921564 4.293855 0.634136 9.220070 4.110435 -6.752202 -3.018872 -1.927630 0.000000 0.000000 0.000000 -0.200035 0.445155 -1.355066 4.337344 1.632131 -0.632700 -5.383015 -3.187738 0.287109 0.000000 0.000000 0.000000 2.767858 -2.634019 -8.637909 -5.225041 0.991580 7.792657 -0.785941 7.058532 -3.863833 0.000000 0.000000 0.000000
0.064335 0.220020 0.171492 12.036247 0.844895 4.450074 0.000000 0.000000 -0.000000 -22.324898 9.220718 -2.945033 28.354293 -5.342658 -4.630840 28.313054 -3.777767 -7.696834 58.066019 -17.798623 26.596777 -53.668205 28.378905 3.497383 -4.043472 0.812195 17.928491 0.000000 0.000000 0.000000 20.065383 -11.162221 4.545145 -1.144609 11.639670 3.874412 -6.770642 -2.113679 -1.318092 0.000000 0.000000 0.000000 -7.398229 0.766321 -2.653248 4.135034 1.650460 -0.771280 -7.661543 -1.633070 -1.878713 0.000000 0.000000 0.000000 -1.878633 -2.692451 -11.864621 -7.517805 1.510884 11.081823 -2.564109 10.422070 -5.133455 0.000000 0.000000 0.000000
0.062640 0.219635 0.185335 13.444404 1.019293 5.395669 0.000000 0.000000 -0.000000 -22.256242 11.742758 -3.587103 28.042497 -7.054276 -4.509218 27.855001 -5.781644 -8.366019 50.110994 -15.531996 22.713864 -44.304259 17.336228 -2.256683 -3.697027 3.575937 16.387987 0.000000 0.000000 0.000000 15.897628 -13.552686 5.051403 0.545293 13.983618 3.094477 -5.057518 -3.455329 0.311625 0.000000 0.000000 0.000000 -9.614306 0.643426 -3.451441 3.453219 1.718256 -0.462290 -8.685781 -0.358505 -4.031954 0.000000 0.000000 0.000000 -2.343565 -2.923223 -14.522839 -9.035401 1.737155 13.877812 -3.701120 12.636103 -6.053179 0.000000 0.000000 0.000000
0.061044 0.216431 0.182665 9.042279 1.397943 5.398748 0.000000 0.000000 -0.000000 -22.251934 12.514913 -2.580014 30.425253 -7.614040 -4.868348 30.041807 -6.230934 -9.454124 38.062769 -18.875043 21.548970 -16.165484 23.137354 -11.057323 -0.594765 -0.915219 13.054074 0.000000 0.000000 0.000000 14.978622 -14.490428 4.478335 2.433301 15.956398 1.529969 0.099220 -6.848521 4.242805 0.000000 0.000000 0.000000 -4.331535 -0.178875 -2.320656 1.038888 1.488602 -1.851051 -7.608803 -0.773939 -3.112528 0.000000 0.000000 0.000000 3.265513 -3.899593 -15.618008 -11.827441 1.999382 15.905298 -2.948911 13.594496 -6.862912 0.000000 0.000000 0.000000
0.062085 0.210958 0.173125 3.514688 1.559879 4.437348 -0.000000 0.000000 -0.000000 -22.321516 10.554644 -1.031714 33.238011 -5.948314 -5.952137 32.168099 -3.809560 -10.143627 32.972273 -16.954941 17.995799 1.542473 18.042978 -15.642801 -3.030568 -3.136529 6.628226 0.000000 0.000000 0.000000 17.714368 -12.024022 2.159361 -1.646654 15.429917 0.088873 5.819049 -9.203740 6.466619 0.000000 0.000000 0.000000 7.513882 -0.475378 2.030633 -5.572085 0.528308 -7.675732 -5.340104 -4.392606 3.882843 0.000000 0.000000 0.000000 9.558049 -4.648124 -13.843171 -15.953540 2.113737 14.221267 1.415402 12.069227 -5.967763 0.000000 0.000000 0.000000
